<svg width="128" height="128" viewBox="0 0 128 128" fill="none" xmlns="http://www.w3.org/2000/svg">
<rect width="128" height="128" fill="#333333"/>
<path d="M112.977 76.8045C113.299 81.1406 110.249 84.6798 106.076 84.9985C104.139 85.143 102.224 84.5144 100.749 83.2502C99.2738 81.9859 98.3585 80.1887 98.2032 78.2513C97.8847 73.9111 100.776 70.6948 105.108 70.2125C109.285 69.8938 112.658 72.6237 112.977 76.8045ZM61.4329 97.0546C57.5782 97.0546 54.3687 100.267 54.3687 104.448C54.3687 109.107 57.419 112 62.0739 112C65.7653 111.837 68.9788 108.465 68.9788 104.607C68.9788 100.59 65.2875 97.0546 61.4329 97.0546ZM65.7653 57.5149C65.606 53.9798 65.4468 50.4447 66.0919 47.069C66.7289 43.2111 67.3741 39.3572 69.7833 36.1409C72.6702 32.1236 77.17 32.283 79.5791 36.6232C80.8613 38.7115 81.3431 40.9633 81.5024 43.3745C81.5024 44.8213 82.1475 45.14 83.4297 44.9807C87.2844 44.339 91.139 44.339 94.8303 45.7858C95.3122 45.9451 95.794 46.268 96.4392 45.7858C97.7213 44.6578 98.0439 39.0344 97.2395 37.5876C95.794 35.013 93.5482 35.3399 91.2983 35.3399C88.7299 35.4993 86.4799 34.6942 84.7159 32.6018C83.1112 30.6769 82.6294 28.2698 82.3068 25.8585C82.1435 24.7306 81.9842 23.7661 81.0205 22.961C78.7747 20.7133 73.6338 21.1955 70.9062 23.4433C60.4692 31.8007 58.7011 45.7858 64.6424 56.8732C64.8057 57.3555 65.1242 57.8377 65.7653 57.5149ZM98.3665 72.4644C99.812 70.376 101.899 69.4115 104.144 68.447C104.654 68.3025 105.13 68.0574 105.544 67.7262C105.957 67.3949 106.301 66.9841 106.554 66.5181C107.999 63.784 106.235 59.121 103.503 56.8732C92.9071 48.6751 79.2566 50.2853 70.1018 58.6428C69.6199 58.9616 69.4607 59.4438 69.7833 59.9261C72.9927 58.9616 76.3656 57.9971 79.8976 57.8418C83.593 57.5149 87.4436 57.1961 91.139 58.8022C95.794 60.7312 96.5984 65.0713 93.0663 68.447C91.4616 70.0531 89.3709 71.177 87.1251 71.8186C85.8389 72.1456 85.6796 72.7831 86.1614 74.0705C87.6069 77.6055 88.5706 81.3041 88.0888 85.3214C87.9254 85.963 87.7662 86.4453 88.4073 86.9275C89.8528 87.892 95.3122 86.9275 96.4392 85.8036C98.5257 83.8747 97.7213 81.6229 97.2395 79.5345C96.5984 76.9598 96.921 74.5527 98.3665 72.4644ZM68.9788 64.1069C68.497 63.784 68.1744 63.6246 67.6926 64.1069C69.6199 67.0003 71.388 70.0531 72.8335 73.2654C74.1157 76.8045 75.5612 80.3355 75.0793 84.3569C74.5975 89.1793 70.5877 91.2636 66.4104 88.8565C64.3239 87.7326 62.715 86.1224 61.4288 84.1975C60.6285 83.0696 59.824 83.0696 58.8604 83.8706C55.8101 86.4453 52.6006 88.3742 48.5867 89.02C47.9416 89.02 47.3005 89.0199 46.9779 89.6616C46.4961 91.2677 48.9052 96.2495 50.3507 97.0546C52.7599 98.5013 54.6872 97.0546 56.6145 95.9266C58.8604 94.6434 61.1103 94.1611 63.6787 94.9622C66.0878 95.7672 67.6926 97.5368 69.1381 99.4658C69.7833 100.267 70.4243 100.908 71.7106 101.231C74.7608 102.036 78.9381 98.8201 80.2202 95.6079C85.0385 83.233 79.5791 70.5354 68.9788 64.1069ZM58.5419 74.0705C60.4692 71.3364 61.9147 68.2836 62.5558 65.0713C61.9147 64.9079 61.7514 65.2348 61.2695 65.3901C57.5782 69.248 53.7236 72.9466 48.746 75.5172C46.8187 76.4817 44.7321 77.2868 42.4822 77.2868C38.9501 77.2868 36.8635 75.0349 37.182 71.4999C37.3262 68.6798 38.4649 66.0024 40.3956 63.9434C41.3593 62.8195 41.3593 62.1779 40.2323 61.2134C37.0228 58.9657 34.1318 56.2275 32.6863 52.5331C32.3678 51.4092 31.5634 51.4092 30.6038 51.8914C29.9951 52.1786 29.4034 52.5006 28.8316 52.8559C24.6585 55.4306 24.1767 58.6428 27.7087 62.1738C30.2812 64.7485 31.5634 67.6419 30.5997 71.177C30.1179 72.9466 29.1542 74.2298 28.0272 75.6766C27.637 76.1067 27.3483 76.6189 27.1822 77.1756C27.0161 77.7322 26.977 78.3191 27.0676 78.8929C27.3902 81.9457 30.4405 84.9985 34.1318 85.3214C44.4095 86.2859 52.7599 82.7467 58.5419 74.0705ZM39.4319 53.0153C45.0506 57.8377 51.9555 58.9616 59.183 58.6428C59.824 58.6428 60.4692 58.6428 60.6284 58.1606C60.7918 57.3555 59.9874 57.3555 59.5055 57.1961C56.1327 55.7494 52.6006 54.6214 49.5504 52.5371C46.5002 50.4529 42.964 48.6751 41.6818 44.6537C40.7182 41.6009 42.0003 38.8709 45.0506 37.9064C47.7823 36.9419 50.51 36.9419 53.0825 37.9064C54.6872 38.548 55.3283 38.2252 55.6509 36.4597C56.1327 33.4069 57.0964 30.5134 59.0237 27.9387C61.2695 24.7265 61.2695 24.4036 57.5782 22.3153C57.4149 22.3153 57.4149 22.1518 57.2556 22.1518C53.7236 20.2269 50.9918 21.3508 49.7097 25.0494C47.7823 30.6728 44.0869 32.7611 38.1457 31.6373C37.3454 31.4738 36.5409 31.3144 36.2184 31.3144C33.1681 31.7967 31.4 33.5622 30.9223 35.9734C30.2771 43.3705 34.1318 48.671 39.4319 53.0153ZM29.9586 67.9648C29.6361 64.1069 25.7814 61.2134 21.6082 61.6956C17.9128 62.0185 14.7034 65.8724 15.0219 69.7303C15.3485 73.7476 19.1991 76.9639 23.0537 76.4817C27.7087 76.1588 30.1179 71.6593 29.9546 67.9648H29.9586ZM91.9434 34.0526C95.794 33.7297 99.0076 30.0353 98.685 26.1773C98.3665 22.16 94.5118 18.9437 90.4979 19.2665C86.3207 19.5894 83.4338 23.2839 83.7523 27.3012C84.0708 31.3185 87.7662 34.3713 91.9434 34.0526ZM41.8411 30.6769C46.1776 30.0353 49.0686 26.4961 48.5867 22.3194C48.1049 18.6249 44.2503 15.568 40.2364 16.0502C35.8999 16.5325 33.3315 19.9082 33.8133 24.5712C34.2951 28.1063 38.1457 31.1591 41.8411 30.6769Z" fill="white"/>
</svg>
