<svg width="128" height="128" viewBox="0 0 128 128" fill="none" xmlns="http://www.w3.org/2000/svg">
<rect width="128" height="128" fill="#333333"/>
<path d="M93.5319 57.3476C92.2056 57.3476 91.1253 58.4296 91.1253 59.76V99.09H84.1845L70.8633 71.3313C72.7644 69.1765 73.5779 66.1873 72.9573 63.3277C72.6713 61.9145 72.0558 60.589 71.1609 59.4595C70.2661 58.33 69.1172 57.4284 67.8081 56.8284V53.5788C67.8564 52.4304 67.2386 51.2639 66.1934 50.6159C65.6379 50.2859 65.0416 50.1223 64.4354 50.1223C63.8286 50.1223 63.233 50.2856 62.7108 50.5951C61.6321 51.2635 61.0143 52.43 61.0642 53.66L61.063 56.544C57.0097 58.0112 54.4258 62.2052 55.1255 66.6229C55.4087 68.438 56.2322 70.1253 57.4882 71.4641L44.6698 99.09H32.9205C28.5478 99.062 25.0141 95.5108 25.0001 91.1315V36.0642C24.9781 40.4738 28.529 44.0667 32.9313 44.0891C33.108 44.0899 33.2846 44.085 33.4609 44.0743H92.3502C92.3502 44.0743 102.472 43.1987 103.78 50.2311C102.785 50.3459 102.003 51.1595 102.003 52.1868C102.003 55.0328 99.6903 57.3472 96.8 57.3472L93.5319 57.3476ZM85.3555 106.147C86.2928 108.082 85.4869 110.411 83.5555 111.35C83.0379 111.602 82.4908 111.708 81.9508 111.721C81.5185 111.732 81.0874 111.67 80.6752 111.539C80.5794 111.508 80.4915 111.455 80.398 111.417C80.0723 111.283 79.7664 111.105 79.4887 110.889C79.39 110.812 79.291 110.737 79.1995 110.649C78.87 110.336 78.5709 109.981 78.3608 109.547L73.347 99.0892L67.1228 86.1083C66.8737 85.5769 66.4788 85.1275 65.984 84.8127C65.4893 84.498 64.9152 84.3309 64.3291 84.3311H64.3195C63.7294 84.3335 63.1518 84.5013 62.6519 84.8153C62.152 85.1294 61.7498 85.5772 61.4908 86.1083L55.4566 99.0892L50.5358 109.675C50.2591 110.311 49.8175 110.862 49.2567 111.269C48.696 111.677 48.0365 111.927 47.3468 111.993C47.0968 112.014 46.8524 111.983 46.608 111.958C46.4706 111.944 46.3324 111.937 46.1986 111.909C46.0033 111.867 45.8176 111.797 45.6315 111.728C45.5113 111.683 45.3867 111.649 45.2717 111.592C45.0736 111.495 44.8931 111.366 44.7137 111.237C44.6271 111.174 44.5312 111.127 44.4493 111.057C44.1933 110.84 43.9658 110.593 43.7724 110.319C43.3806 109.746 43.148 109.079 43.0983 108.387C43.0486 107.694 43.1837 107.001 43.4896 106.378L46.872 99.0888L59.922 70.9629C58.4071 69.8427 57.3927 68.1708 57.0976 66.3081C56.4766 62.3884 59.146 58.7068 63.0595 58.0844V53.5788C63.0493 53.3279 63.1059 53.0789 63.2233 52.8572C63.3408 52.6354 63.515 52.4489 63.7281 52.3167C63.942 52.1895 64.1863 52.1224 64.4352 52.1224C64.684 52.1224 64.9283 52.1895 65.1423 52.3167C65.3554 52.4489 65.5296 52.6354 65.6471 52.8571C65.7646 53.0789 65.8211 53.3279 65.8108 53.5788V58.2148L65.8623 58.2404C67.1442 58.594 68.3032 59.2961 69.211 60.2691C70.1188 61.242 70.7399 62.4477 71.0055 63.7525C71.2901 65.0635 71.1997 66.4284 70.7448 67.6904C70.29 68.9523 69.489 70.0603 68.4339 70.8869L81.9684 99.09L85.3555 106.147ZM68.4303 65.2245C68.4471 62.7921 66.4917 60.8068 64.0631 60.7904C62.8891 60.7908 61.7623 61.2532 60.9256 62.078C60.107 62.8968 59.6435 64.0058 59.6356 65.1645C59.6189 67.5969 61.5742 69.5821 64.0028 69.5985H64.0336C66.4482 69.5985 68.4135 67.6465 68.4303 65.2245ZM64.3287 86.3319C63.8818 86.3339 63.4816 86.5847 63.3019 86.9531L57.6599 99.09H71.1321L65.3156 86.9587C65.227 86.7715 65.0873 86.6132 64.9127 86.5023C64.738 86.3914 64.5355 86.3323 64.3287 86.3319ZM96.8508 59.348L96.7992 59.3476H93.5335C93.4795 59.3476 93.426 59.3583 93.3761 59.379C93.3262 59.3997 93.2809 59.43 93.2427 59.4683C93.2045 59.5066 93.1742 59.552 93.1535 59.602C93.1328 59.6519 93.1222 59.7055 93.1222 59.7596V111.401C93.122 111.506 93.1618 111.607 93.2335 111.684C93.3052 111.761 93.4034 111.807 93.508 111.813H96.8767C100.815 111.799 104 108.597 104 104.653V52.1875C104 56.1424 100.799 59.348 96.8508 59.348ZM26.9978 36.0646V36.1406C27.0134 39.4046 29.6812 42.0727 32.9381 42.0883C33.1123 42.0828 33.2866 42.0782 33.4609 42.0747H37.9683C38.7558 36.8146 41.0063 31.9746 44.5101 28.1309H32.9465C29.2459 28.1433 26.1687 30.6913 25.2821 34.121C26.2474 34.263 26.9978 35.061 26.9978 36.0646ZM52.3107 24.4737L48.1703 17.3136C48.0936 17.1805 48.0533 17.0295 48.0533 16.8758C48.0533 16.7221 48.0936 16.5711 48.1703 16.438C48.2513 16.3112 48.3612 16.2054 48.4908 16.1293C48.6205 16.0531 48.7663 16.0088 48.9164 16C49.0679 16.002 49.2162 16.0434 49.3469 16.1201C49.4776 16.1968 49.5862 16.3062 49.662 16.4376L53.8539 23.7009C57.1937 22.1985 60.8133 21.4217 64.4745 21.4217C68.1357 21.4217 71.7553 22.1985 75.0951 23.7009L79.261 16.4376C79.3927 16.2749 79.5782 16.1648 79.7839 16.1274C79.9897 16.0899 80.202 16.1276 80.3824 16.2335C80.5628 16.3394 80.6993 16.5066 80.7672 16.7047C80.835 16.9028 80.8297 17.1187 80.7523 17.3132L76.6379 24.4733C83.2959 28.1233 87.8101 34.649 89.0086 42.0807L39.9412 42.0751C41.1409 34.6462 45.6543 28.1229 52.3107 24.4737ZM73.7868 34.9546C73.7931 35.2251 73.8526 35.4917 73.9618 35.7392C74.071 35.9867 74.2278 36.2102 74.4233 36.397C74.6188 36.5837 74.8491 36.7301 75.1011 36.8277C75.3531 36.9253 75.6218 36.9722 75.8919 36.9658C76.162 36.9659 76.4296 36.9126 76.6792 36.8091C76.9288 36.7055 77.1556 36.5538 77.3466 36.3624C77.5377 36.1711 77.6892 35.9439 77.7926 35.6939C77.8959 35.4439 77.9491 35.176 77.9491 34.9054C77.9467 34.4947 77.8233 34.0938 77.5943 33.7531C77.3653 33.4124 77.041 33.147 76.662 32.9902C76.283 32.8334 75.8662 32.7922 75.4639 32.8717C75.0616 32.9513 74.6917 33.1481 74.4006 33.4374C74.2002 33.6348 74.0424 33.8713 73.9368 34.1323C73.8312 34.3932 73.7801 34.6731 73.7868 34.9546ZM50.9512 34.9278C50.9541 35.1984 51.0102 35.4657 51.1163 35.7146C51.2224 35.9634 51.3764 36.1889 51.5695 36.3782C51.7626 36.5674 51.9911 36.7167 52.2418 36.8176C52.4925 36.9184 52.7606 36.9688 53.0308 36.9658C53.3022 36.9702 53.5717 36.92 53.8235 36.8182C54.0752 36.7165 54.3041 36.5652 54.4965 36.3734C54.7208 36.1885 54.9041 35.9587 55.0345 35.6987C55.1649 35.4387 55.2395 35.1543 55.2536 34.8636C55.2677 34.573 55.2209 34.2827 55.1163 34.0112C55.0117 33.7398 54.8515 33.4932 54.6461 33.2875C54.4407 33.0817 54.1946 32.9213 53.9236 32.8165C53.6526 32.7117 53.3627 32.6648 53.0725 32.6789C52.7824 32.6929 52.4983 32.7677 52.2387 32.8982C51.9791 33.0288 51.7496 33.2123 51.565 33.437C51.3679 33.6313 51.2119 33.8636 51.1064 34.1197C51.0009 34.3759 50.9482 34.6507 50.9512 34.9278Z" fill="white"/>
</svg>
