<svg width="128" height="128" viewBox="0 0 128 128" fill="none" xmlns="http://www.w3.org/2000/svg">
<rect width="128" height="128" fill="#333333"/>
<g clip-path="url(#clip0_7_13)">
<path d="M110.345 30.6203C107.32 27.5963 103.239 25.8653 98.9622 25.7925C94.6855 25.7198 90.5477 27.3109 87.4217 30.2303C87.2653 30.3793 87.1407 30.5584 87.0557 30.7569C86.9706 30.9555 86.9267 31.1692 86.9267 31.3852C86.9267 31.6011 86.9706 31.8149 87.0557 32.0134C87.1407 32.2119 87.2653 32.3911 87.4217 32.54L89.415 34.5767C89.6836 34.8428 90.039 35.0032 90.4162 35.0287C90.7934 35.0541 91.1671 34.9429 91.469 34.7153C93.3756 33.1954 95.7957 32.4707 98.2239 32.6926C100.652 32.9146 102.901 34.066 104.5 35.9065C106.1 37.7469 106.926 40.1341 106.807 42.5695C106.688 45.005 105.633 47.3003 103.862 48.9763C90.7627 62.063 73.2863 25.3727 33.6147 44.2833C32.9445 44.6045 32.3482 45.0613 31.8635 45.6247C31.3789 46.1881 31.0163 46.8459 30.7989 47.5565C30.5814 48.2672 30.5137 49.0152 30.6001 49.7534C30.6864 50.4915 30.925 51.2038 31.3007 51.845L38.1083 63.6013C38.8139 64.8275 39.9751 65.7253 41.3393 66.0994C42.7036 66.4735 44.1604 66.2937 45.3927 65.599L45.553 65.5123L45.4273 65.599L48.4087 63.935C51.7718 61.8475 54.951 59.4773 57.9117 56.85C58.2047 56.5826 58.5836 56.4287 58.98 56.416C59.3765 56.4033 59.7645 56.5326 60.074 56.7807C60.242 56.9209 60.3783 57.0951 60.474 57.2918C60.5697 57.4886 60.6226 57.7034 60.6291 57.9221C60.6357 58.1408 60.5957 58.3584 60.512 58.5605C60.4283 58.7626 60.3026 58.9447 60.1433 59.0947C57.0266 61.9 53.6682 64.4246 50.1073 66.639H50.0033L46.9873 68.329C45.7128 69.0434 44.2754 69.4165 42.8143 69.4123C41.301 69.4183 39.8128 69.0253 38.4997 68.2729C37.1867 67.5205 36.0951 66.4353 35.335 65.1267L28.9 54.016C16.5933 62.7867 9.02733 79.613 13.1267 100.929C13.194 101.287 13.3838 101.611 13.6636 101.845C13.9435 102.079 14.2959 102.209 14.6607 102.211H21.919C22.3184 102.221 22.7064 102.077 23.0042 101.811C23.302 101.545 23.4872 101.175 23.5223 100.777C23.8573 98.1894 25.1229 95.8123 27.0826 94.0898C29.0424 92.3674 31.5623 91.4174 34.1715 91.4174C36.7807 91.4174 39.3006 92.3674 41.2604 94.0898C43.2202 95.8123 44.4857 98.1894 44.8207 100.777C44.8662 101.155 45.0487 101.504 45.3337 101.757C45.6187 102.01 45.9865 102.15 46.3677 102.151H53.4657C53.846 102.147 54.2123 102.007 54.4968 101.754C54.7812 101.501 54.9645 101.154 55.0127 100.777C55.3513 98.1928 56.6181 95.82 58.5771 94.1009C60.5361 92.3819 63.0534 91.434 65.6597 91.434C68.2659 91.434 70.7833 92.3819 72.7422 94.1009C74.7012 95.82 75.9681 98.1928 76.3067 100.777C76.355 101.155 76.5389 101.503 76.8242 101.755C77.1095 102.008 77.4769 102.148 77.858 102.151H84.9083C85.3211 102.151 85.7173 101.989 86.0115 101.699C86.3058 101.41 86.4745 101.016 86.4813 100.604C86.6417 90.663 89.324 79.2403 96.968 73.5203C123.436 53.717 116.472 36.7477 110.345 30.6203ZM83.3527 60.5247L78.3043 57.994C78.3049 57.4542 78.4436 56.9236 78.7071 56.4526C78.9707 55.9816 79.3504 55.5858 79.8102 55.303C80.2699 55.0202 80.7943 54.8597 81.3336 54.8368C81.8729 54.8139 82.409 54.9294 82.8911 55.1723C83.3731 55.4152 83.785 55.7774 84.0875 56.2244C84.39 56.6714 84.5731 57.1884 84.6194 57.7262C84.6656 58.2639 84.5735 58.8046 84.3518 59.2967C84.1301 59.7888 83.7861 60.216 83.3527 60.5377V60.5247Z" fill="white"/>
</g>
<defs>
<clipPath id="clip0_7_13">
<rect width="104" height="104" fill="white" transform="translate(12 12)"/>
</clipPath>
</defs>
</svg>
