<svg version="1.1" xmlns="http://www.w3.org/2000/svg" xmlns:xlink="http://www.w3.org/1999/xlink" width="132" height="132"><defs><style xmlns="http://www.w3.org/1999/xhtml" type="text/css">@font-face {
  font-family: 'Inter';
  font-style: normal;
  font-weight: 100;
  src: url('https://frame0.app/fonts/Inter-Thin.ttf') format('truetype');
}
@font-face {
  font-family: 'Inter';
  font-style: italic;
  font-weight: 100;
  src: url('https://frame0.app/fonts/Inter-ThinItalic.ttf') format('truetype');
}
@font-face {
  font-family: 'Inter';
  font-style: normal;
  font-weight: 200;
  src: url('https://frame0.app/fonts/Inter-ExtraLight.ttf') format('truetype');
}
@font-face {
  font-family: 'Inter';
  font-style: italic;
  font-weight: 200;
  src: url('https://frame0.app/fonts/Inter-ExtraLightItalic.ttf') format('truetype');
}
@font-face {
  font-family: 'Inter';
  font-style: normal;
  font-weight: 300;
  src: url('https://frame0.app/fonts/Inter-Light.ttf') format('truetype');
}
@font-face {
  font-family: 'Inter';
  font-style: italic;
  font-weight: 300;
  src: url('https://frame0.app/fonts/Inter-LightItalic.ttf') format('truetype');
}
@font-face {
  font-family: 'Inter';
  font-style: normal;
  font-weight: 400;
  src: url('https://frame0.app/fonts/Inter-Regular.ttf') format('truetype');
}
@font-face {
  font-family: 'Inter';
  font-style: italic;
  font-weight: 400;
  src: url('https://frame0.app/fonts/Inter-Italic.ttf') format('truetype');
}
@font-face {
  font-family: 'Inter';
  font-style: normal;
  font-weight: 500;
  src: url('https://frame0.app/fonts/Inter-Medium.ttf') format('truetype');
}
@font-face {
  font-family: 'Inter';
  font-style: italic;
  font-weight: 500;
  src: url('https://frame0.app/fonts/Inter-MediumItalic.ttf') format('truetype');
}
@font-face {
  font-family: 'Inter';
  font-style: normal;
  font-weight: 600;
  src: url('https://frame0.app/fonts/Inter-SemiBold.ttf') format('truetype');
}
@font-face {
  font-family: 'Inter';
  font-style: italic;
  font-weight: 600;
  src: url('https://frame0.app/fonts/Inter-SemiBoldItalic.ttf') format('truetype');
}
@font-face {
  font-family: 'Inter';
  font-style: normal;
  font-weight: 700;
  src: url('https://frame0.app/fonts/Inter-Bold.ttf') format('truetype');
}
@font-face {
  font-family: 'Inter';
  font-style: italic;
  font-weight: 700;
  src: url('https://frame0.app/fonts/Inter-BoldItalic.ttf') format('truetype');
}
@font-face {
  font-family: 'Inter';
  font-style: normal;
  font-weight: 800;
  src: url('https://frame0.app/fonts/Inter-ExtraBold.ttf') format('truetype');
}
@font-face {
  font-family: 'Inter';
  font-style: italic;
  font-weight: 800;
  src: url('https://frame0.app/fonts/Inter-ExtraBoldItalic.ttf') format('truetype');
}
@font-face {
  font-family: 'Source Serif Pro';
  font-style: normal;
  font-weight: 400;
  src: url('https://frame0.app/fonts/SourceSerifPro-Regular.ttf') format('truetype');
}
@font-face {
  font-family: 'Source Serif Pro';
  font-style: italic;
  font-weight: 400;
  src: url('https://frame0.app/fonts/SourceSerifPro-Italic.ttf') format('truetype');
}
@font-face {
  font-family: 'Source Serif Pro';
  font-style: normal;
  font-weight: 700;
  src: url('https://frame0.app/fonts/SourceSerifPro-Bold.ttf') format('truetype');
}
@font-face {
  font-family: 'Source Serif Pro';
  font-style: italic;
  font-weight: 700;
  src: url('https://frame0.app/fonts/SourceSerifPro-BoldItalic.ttf') format('truetype');
}
@font-face {
  font-family: 'IBM Plex Mono';
  font-style: normal;
  font-weight: 400;
  src: url('https://frame0.app/fonts/IBMPlexMono-Regular.ttf') format('truetype');
}
@font-face {
  font-family: 'IBM Plex Mono';
  font-style: italic;
  font-weight: 400;
  src: url('https://frame0.app/fonts/IBMPlexMono-Italic.ttf') format('truetype');
}
@font-face {
  font-family: 'IBM Plex Mono';
  font-style: normal;
  font-weight: 700;
  src: url('https://frame0.app/fonts/IBMPlexMono-Bold.ttf') format('truetype');
}
@font-face {
  font-family: 'IBM Plex Mono';
  font-style: italic;
  font-weight: 700;
  src: url('https://frame0.app/fonts/IBMPlexMono-BoldItalic.ttf') format('truetype');
}
@font-face {
  font-family: 'Loranthus';
  font-style: normal;
  font-weight: 400;
  src: url('https://frame0.app/fonts/Loranthus-Regular.ttf') format('truetype');
}
@font-face {
  font-family: 'Loranthus';
  font-style: normal;
  font-weight: 700;
  src: url('https://frame0.app/fonts/Loranthus-Bold.ttf') format('truetype');
}
@font-face {
  font-family: 'Loranthus';
  font-style: italic;
  font-weight: 400;
  src: url('https://frame0.app/fonts/Loranthus-Italic.ttf') format('truetype');
}
@font-face {
  font-family: 'Loranthus';
  font-style: italic;
  font-weight: 700;
  src: url('https://frame0.app/fonts/Loranthus-BoldItalic.ttf') format('truetype');
}
@font-face {
  font-family: 'Redacted Script';
  font-style: normal;
  font-weight: 400;
  src: url('https://frame0.app/fonts/RedactedScript-Regular.ttf') format('truetype');
}
@font-face {
  font-family: 'Redacted Script';
  font-style: normal;
  font-weight: 700;
  src: url('https://frame0.app/fonts/RedactedScript-Bold.ttf') format('truetype');
}
@font-face {
  font-family: 'Jojoba';
  font-style: normal;
  font-weight: 400;
  src: url('https://frame0.app/fonts/Jojoba.ttf') format('truetype');
}</style></defs><g><g><g><g><path fill="none" stroke="#ffffff" paint-order="fill stroke markers" d=" M 2.5 2.5 C 41.51687936484814 0.9224576106667519 81.98516789078712 1.2150048366189004 129.5 2.5 M 2.5 2.5 C 30.185068938136105 3.388505468070507 56.1417339205742 2.2438950631022454 129.5 2.5 M 129.5 2.5 C 129.45371228456497 4.145688235759735 128.51682835817337 3.8216773867607117 129.5 2.5 M 129.5 2.5 C 127.99250677525997 1.694548574090004 128.7542198985815 2.548724427819252 129.5 2.5 M 129.5 2.5 C 129.87367347866297 48.47761022746563 131.5632734695077 92.86140387654305 129.5 129.5 M 129.5 2.5 C 131.50157953947783 36.364613947272304 130.75496985167266 71.57934978008271 129.5 129.5 M 129.5 129.5 C 129.6203401684761 130.44027251005173 129.39433270692825 128.83409613370895 129.5 129.5 M 129.5 129.5 C 129.6776408046484 129.99928118288517 130.90197905004024 129.2307244926691 129.5 129.5 M 129.5 129.5 C 84.82177589237689 127.90329091399909 36.0342958152294 129.61954419463873 2.5 129.5 M 129.5 129.5 C 94.05939899981021 130.5953997209668 59.19657499790192 129.3024128511548 2.5 129.5 M 2.5 129.5 C 1.5265310406684875 131.17986410856247 3.220384418964386 131.17628782987595 2.5 129.5 M 2.5 129.5 C 2.6033113330602644 130.0413581520319 1.7993567317724228 127.94879938662052 2.5 129.5 M 2.5 129.5 C 0.6932889112830161 87.63747062981128 2.4337922224402426 44.981963151693336 2.5 2.5 M 2.5 129.5 C 2.287224316895008 88.58570819199085 1.4048114064335824 46.02544642686844 2.5 2.5 M 2.5 2.5 C 2.6586130261421204 2.9093849062919617 3.918811619281769 1.9556743502616882 2.5 2.5 M 2.5 2.5 C 3.485045704245567 1.4411896377801896 3.2650052875280378 1.2702342659235002 2.5 2.5 M 2.5 2.5 C 2.5 2.5 2.5 2.5 2.5 2.5 M 2.5 2.5 C 2.5 2.5 2.5 2.5 2.5 2.5" stroke-linecap="round" stroke-linejoin="round" stroke-miterlimit="10" stroke-width="2"/></g></g><g><g><path fill="none" stroke="#ffffff" paint-order="fill stroke markers" d=" M 34.5 96 C 35.48188130585477 79.77985463384539 34.67325212089345 64.86911941226572 34.5 36 M 34.5 96 C 34.306104003451765 76.23221041681245 34.59412874188274 56.450555777642876 34.5 36 M 34.5 36 C 34.11945904325694 31.38462955736835 39.802107051474046 25.38107252586633 44.5 26 M 34.5 36 C 34.21468050763942 30.219936764280316 38.31629189899471 26.59784719585441 44.5 26 M 44.5 26 C 62.18797820433974 26.412127286428586 80.39643080811948 24.880716741317883 94.5 26 M 44.5 26 C 59.754381401930004 25.79442479577847 75.1856254558079 25.781442352803424 94.5 26 M 94.5 26 C 96.3850662611451 26.684855406172574 99.15531135629863 28.32534089162685 98.5 30 M 94.5 26 C 96.56977745523005 26.378905081143603 99.02717188284733 27.704817923854293 98.5 30 M 98.5 30 C 98.37852397479116 53.40430230554193 98.65077972330153 77.65753746312112 98.5 102 M 98.5 30 C 97.72401206301525 57.77056739637628 98.56011057006195 85.96997509980574 98.5 102 M 98.5 102 C 99.0205910904333 103.66166530512534 97.60644637570046 105.9243651079014 94.5 106 M 98.5 102 C 97.38234203443862 104.8414833861895 97.30503742327242 106.81282245456241 94.5 106 M 94.5 106 C 79.60886449925601 105.98592106043361 63.352707675658166 105.27282602130435 44.5 106 M 94.5 106 C 81.90105673344806 106.24957528314553 69.79332556156442 106.0257840862032 44.5 106 M 44.5 106 C 36.146334391067924 106.53864527214319 32.936675791247936 96.73207379846524 35.83974596215561 91 M 44.5 106 C 37.109804316637295 106.19542243122123 32.926921647639205 97.48980766126576 35.83974596215561 91 M 35.83974596215561 91 C 38.00776981832807 88.74909824872167 40.64267024155308 86.50813457835466 44.5 86 M 35.83974596215561 91 C 37.81494043297482 87.4818378618803 41.3165370217019 86.3314791420009 44.5 86 M 44.5 86 C 58.432313514128325 86.12843620630912 74.5957669219002 85.48755052539519 98.5 86 M 44.5 86 C 60.928193647135046 85.80170670199207 76.87758393762633 86.17495138990692 98.5 86" stroke-linecap="round" stroke-linejoin="round" stroke-miterlimit="10" stroke-width="2"/></g><g><path fill="none" stroke="#ffffff" paint-order="fill stroke markers" d=" M 50.5 62 C 59.51345399189741 61.373235829137265 67.00954371560366 62.03384856130928 82.5 62 M 50.5 62 C 60.93626051163301 62.1441934643127 71.9036470851861 62.38634226599708 82.5 62" stroke-linecap="round" stroke-linejoin="round" stroke-miterlimit="10" stroke-width="2"/></g><g><path fill="none" stroke="#ffffff" paint-order="fill stroke markers" d=" M 50.5 46 C 57.43727426473051 45.36772751875222 62.857184261269865 46.02834025092423 74.5 46 M 50.5 46 C 58.26642005285248 46.17214856265113 66.56396616762504 46.41429736433551 74.5 46" stroke-linecap="round" stroke-linejoin="round" stroke-miterlimit="10" stroke-width="2"/></g></g></g></g></svg>