<svg width="128" height="128" viewBox="0 0 128 128" fill="none" xmlns="http://www.w3.org/2000/svg">
<rect width="128" height="128" fill="#333333"/>
<g clip-path="url(#clip0_16_2)">
<path d="M16 16V112H112V16H16ZM30.892 28.444H50.892V35.78H45.332V60.888H50.892V68.224H30.892V60.888H36.668V35.78H30.892V28.444ZM75.112 28.444H84V54.444C84 56.892 83.78 58.888 83.112 60.668C82.444 62.444 81.552 63.776 80.22 65.108C79.112 66.224 77.556 67.336 75.78 67.78C73.9404 68.511 71.9795 68.8883 70 68.892C66.888 68.892 64.224 68.224 62.224 67.112C60.2869 66.0109 58.5559 64.5816 57.108 62.888L62.668 56.668C63.776 58.004 64.888 58.888 66 59.556C67.108 60.224 68.444 60.668 69.78 60.668C71.336 60.668 72.664 60.224 73.78 59.112C74.664 58 75.112 56.444 75.112 54V28.444ZM24.888 94H60.888V100H24.888V94Z" fill="white"/>
</g>
<defs>
<clipPath id="clip0_16_2">
<rect width="96" height="96" fill="white" transform="translate(16 16)"/>
</clipPath>
</defs>
</svg>
