<svg width="128" height="128" viewBox="0 0 128 128" fill="none" xmlns="http://www.w3.org/2000/svg">
<rect width="128" height="128" fill="#333333"/>
<g clip-path="url(#clip0_7_34)">
<path d="M73.2343 12.2037C72.4847 12.2037 71.787 12.364 71.1413 12.5807C72.5107 13.4907 73.2647 14.704 73.6373 16.0733C73.6677 16.2597 73.7197 16.394 73.7457 16.5803C73.7778 16.7403 73.7967 16.9026 73.802 17.0657C73.906 19.4273 73.1823 19.7263 72.6753 21.1217C71.8953 22.92 72.112 24.8527 73.048 26.4083C73.1337 26.6169 73.2412 26.8159 73.3687 27.002C72.3503 20.2073 78.0183 19.189 79.0627 17.0657C79.145 15.211 77.6153 13.976 76.4063 13.118C75.4562 12.521 74.3564 12.2055 73.2343 12.208V12.2037ZM81.7753 13.7333C81.6713 14.353 81.7493 14.1927 81.7233 14.5133C81.6973 14.73 81.6973 14.9987 81.6713 15.211C81.615 15.4277 81.563 15.6443 81.4807 15.8567C81.4287 16.0733 81.3507 16.29 81.264 16.5023L80.9737 17.1177C80.887 17.226 80.8393 17.3343 80.757 17.4427L80.5967 17.681C80.4688 17.8649 80.3344 18.0441 80.1937 18.2183C80.0333 18.383 79.899 18.5693 79.7083 18.7037V18.7297C79.548 18.864 79.3877 19.0243 79.197 19.163C78.6337 19.592 77.9923 19.9127 77.3987 20.3157C77.2123 20.4457 77.0217 20.5583 76.8613 20.7187C76.679 20.8469 76.508 20.9904 76.35 21.1477C76.1637 21.308 76.0293 21.4683 75.869 21.659C75.7347 21.8193 75.5743 22.0057 75.466 22.1963C75.3311 22.3778 75.2053 22.5658 75.089 22.7597C74.9807 22.9763 74.9027 23.1627 74.7943 23.375C74.712 23.5917 74.634 23.778 74.5777 23.9947C74.5066 24.216 74.4444 24.44 74.3913 24.6663C74.3653 24.7747 74.3653 24.909 74.3393 25.013C74.309 25.1213 74.309 25.2297 74.283 25.338C74.283 25.5547 74.257 25.793 74.257 26.0097C74.257 26.17 74.257 26.3303 74.283 26.4907C74.283 26.7073 74.309 26.924 74.3653 27.1623C74.3913 27.379 74.4433 27.5957 74.4953 27.8123C74.582 28.0247 74.634 28.237 74.712 28.4537C74.7683 28.5837 74.8463 28.7223 74.9027 28.8307L68.7233 26.4387C67.679 26.144 66.6563 25.8753 65.6077 25.6327L63.9177 25.2297C62.3057 24.909 60.6677 24.6663 59.0297 24.506C58.9733 24.506 58.9473 24.48 58.8953 24.48C56.1275 24.2027 53.3408 24.1665 50.5667 24.3717C48.9287 24.48 47.2907 24.6923 45.6527 24.961C44.4354 25.1707 43.2257 25.4222 42.0257 25.715L40.8167 26.0357C40.418 26.196 40.0367 26.3823 39.664 26.547L38.7757 26.95C38.7237 26.976 38.6717 26.976 38.6457 27.002C38.3727 27.1363 38.1343 27.2447 37.8917 27.379C37.5428 27.5329 37.2015 27.7035 36.869 27.8903C36.6827 27.9683 36.4963 28.0767 36.3317 28.159C36.2547 28.2067 36.1751 28.2501 36.0933 28.289C35.8507 28.4277 35.608 28.562 35.3913 28.6963C35.1702 28.8186 34.9561 28.9531 34.75 29.0993C34.5593 29.2293 34.373 29.3377 34.2127 29.472C34.1867 29.5023 34.1563 29.5023 34.1303 29.5283C33.97 29.6367 33.7837 29.771 33.619 29.9053L33.567 29.9573L33.164 30.278C33.112 30.3083 33.0557 30.3603 33.0037 30.3863C32.8693 30.4947 32.735 30.629 32.6007 30.733C32.5747 30.7893 32.5183 30.8197 32.4923 30.8413C32.332 31.006 32.1717 31.1403 32.0113 31.3007C31.981 31.3007 31.981 31.3267 31.955 31.3527C31.788 31.4986 31.6275 31.6519 31.474 31.812C31.4437 31.838 31.4437 31.864 31.4177 31.864C31.2766 32.002 31.1421 32.1467 31.0147 32.2973C30.9627 32.3493 30.8847 32.4013 30.8283 32.4533C30.6844 32.6236 30.5311 32.7856 30.369 32.9387C30.343 32.9907 30.291 33.021 30.265 33.0687C30.0483 33.2853 29.862 33.502 29.6453 33.7187L29.5673 33.7967C29.134 34.256 28.679 34.711 28.1937 35.114C27.7127 35.5473 27.2013 35.946 26.69 36.297C25.6633 37.0303 24.5553 37.6425 23.388 38.1213C22.8247 38.364 22.231 38.5807 21.6417 38.767C20.515 39.0097 19.358 39.4647 18.3657 39.547C18.149 39.547 17.9107 39.599 17.694 39.625L17.0223 39.7853L16.3767 40.028C16.16 40.1103 15.9477 40.2187 15.7353 40.3227C15.5447 40.457 15.3323 40.5653 15.1417 40.6997C14.9505 40.838 14.7708 40.9917 14.6043 41.159C14.418 41.289 14.2273 41.4797 14.067 41.64C13.9067 41.8263 13.7463 41.9867 13.612 42.1773C13.4777 42.394 13.3173 42.5803 13.209 42.797C13.0678 42.9922 12.9418 43.1979 12.832 43.4123C12.7237 43.655 12.6153 43.8717 12.5373 44.11C12.455 44.3267 12.377 44.5693 12.2947 44.8077C12.2427 45.0243 12.1863 45.241 12.1647 45.4577C12.1647 45.4793 12.1343 45.5097 12.1343 45.5357C12.0823 45.7783 12.0823 46.099 12.052 46.2593C12.026 46.45 12 46.606 12 46.7967C11.995 47.264 12.1051 47.7253 12.3207 48.14V48.166C12.403 48.3263 12.5113 48.491 12.6197 48.6513C12.7237 48.8117 12.8363 48.972 12.9663 49.1323C13.1007 49.2667 13.261 49.4313 13.4257 49.5657C13.5822 49.7227 13.7518 49.8662 13.9327 49.9947C14.5783 50.558 14.7387 50.7443 15.5707 51.1733C15.705 51.2557 15.8393 51.3077 16.004 51.39C16.03 51.39 16.056 51.416 16.082 51.416C16.082 51.4723 16.082 51.4983 16.108 51.5503C16.1707 51.9932 16.2871 52.4269 16.4547 52.8417C16.5413 53.002 16.5933 53.1623 16.6713 53.3227C16.7017 53.379 16.7277 53.431 16.758 53.457C16.862 53.6737 16.9703 53.86 17.0743 54.0507L17.4773 54.614C17.6117 54.7743 17.7763 54.9607 17.9367 55.1253C18.097 55.2857 18.2573 55.42 18.448 55.5803C18.448 55.5803 18.474 55.6063 18.5 55.6063C18.6603 55.7407 18.8207 55.875 18.9853 55.9833C19.1722 56.1144 19.3693 56.2304 19.5747 56.33C19.761 56.4383 19.9777 56.5467 20.19 56.629C20.3631 56.7071 20.543 56.7695 20.7273 56.8153C20.7577 56.8413 20.7837 56.8413 20.8357 56.8673C20.944 56.8977 21.0783 56.9237 21.1823 56.9497C21.1043 58.4013 21.0783 59.7663 21.295 60.2517C21.5333 60.789 22.7163 59.151 23.895 57.2703C23.739 59.125 23.6307 61.3003 23.895 61.946C24.194 62.6177 25.8017 60.5203 27.2013 58.2107C46.2463 53.808 63.623 66.964 65.4473 85.554C65.1007 82.6507 61.5257 81.043 59.8877 81.446C59.0817 83.4307 57.7123 85.983 55.511 87.569C55.6973 85.7923 55.6193 83.9723 55.2423 82.1957C54.6408 84.6687 53.5032 86.9794 51.91 88.9643C49.362 89.1507 46.8097 87.9157 45.4663 86.061C45.358 85.983 45.332 85.8227 45.2497 85.7143C45.1717 85.528 45.0893 85.3373 45.033 85.151C44.955 84.9711 44.9011 84.7817 44.8727 84.5877C44.8467 84.397 44.8467 84.2107 44.8467 83.994V83.591C44.8787 83.4004 44.9236 83.2122 44.981 83.0277C45.0373 82.8413 45.0893 82.655 45.1717 82.4643C45.2757 82.278 45.358 82.0873 45.4923 81.901C45.9473 80.6097 45.9473 79.561 45.1153 78.9457C44.9537 78.8402 44.7825 78.7502 44.604 78.677C44.5 78.651 44.3657 78.599 44.2573 78.5687L44.0407 78.4907C43.8567 78.4311 43.6684 78.3862 43.4773 78.3563C43.2943 78.3028 43.1047 78.275 42.914 78.274C42.7189 78.2434 42.5221 78.226 42.3247 78.222C42.1903 78.222 42.056 78.248 41.9217 78.248C41.7209 78.2469 41.5209 78.2746 41.328 78.3303C41.1417 78.3563 40.9553 78.3823 40.7647 78.4343C40.573 78.4857 40.3848 78.5494 40.2013 78.625C40.015 78.703 39.8547 78.7853 39.664 78.8677C39.5037 78.9457 39.3433 79.054 39.1527 79.1363C32.8953 83.2183 36.6307 92.7777 40.899 95.5467C39.287 95.8413 37.649 96.188 37.194 96.539L37.1377 96.591C38.2947 97.2887 39.5037 97.8823 40.7647 98.3937C42.485 98.957 44.3093 99.464 45.1153 99.6807V99.7067C47.3406 100.164 49.6163 100.327 51.884 100.192C63.7833 99.36 73.5333 90.3077 75.3057 78.3823L75.466 79.08C75.5483 79.5653 75.6523 80.0767 75.7087 80.5837V80.6097C75.7607 80.8523 75.7867 81.095 75.817 81.3117V81.4157C75.843 81.6583 75.869 81.901 75.869 82.1177C75.895 82.4123 75.921 82.707 75.921 83.0017V83.435C75.921 83.565 75.9513 83.7253 75.9513 83.8597C75.9513 84.0243 75.921 84.1847 75.921 84.345V84.722C75.921 84.9083 75.895 85.0687 75.895 85.2593C75.895 85.3677 75.895 85.476 75.869 85.606C75.869 85.7967 75.843 85.983 75.843 86.1997C75.817 86.2777 75.817 86.36 75.817 86.438L75.7303 87.0577C75.7303 87.14 75.7303 87.218 75.7087 87.3003C75.6783 87.569 75.6263 87.8117 75.6003 88.0803V88.1323L75.44 88.8863V88.9643L75.2797 89.688C75.2797 89.7183 75.2493 89.7747 75.2493 89.7963C75.1999 90.0421 75.1377 90.2851 75.063 90.5243V90.6023C74.9807 90.871 74.9027 91.1137 74.8463 91.3563C74.8203 91.3823 74.8203 91.4083 74.8203 91.4083L74.5777 92.2143C74.4737 92.483 74.3913 92.7257 74.283 92.9943C74.1747 93.263 74.0967 93.5317 73.9883 93.7743C73.88 94.043 73.7717 94.2813 73.6677 94.5543H73.6373C73.5333 94.7927 73.4207 95.0613 73.2907 95.304C73.2681 95.3681 73.2406 95.4305 73.2083 95.4903C73.1823 95.5163 73.1823 95.5467 73.1563 95.5727C71.38 99.1288 68.7946 102.219 65.6077 104.595C65.391 104.729 65.1787 104.894 64.962 105.054C64.91 105.106 64.832 105.132 64.7757 105.184C64.5836 105.326 64.387 105.462 64.1863 105.591L64.2643 105.752H64.2947L65.4213 105.591H65.4473C66.145 105.483 66.8427 105.349 67.5403 105.214C67.731 105.188 67.9433 105.132 68.134 105.08L68.511 104.998C68.6973 104.972 68.8837 104.92 69.0743 104.894C69.2347 104.837 69.395 104.807 69.5553 104.759C72.242 104.109 74.8463 103.225 77.3467 102.181C73.03 108.061 67.2889 112.746 60.6633 115.796C63.7573 115.58 66.8427 115.073 69.824 114.21C80.6149 111.038 89.7289 103.755 95.2043 93.9303C94.0984 100.15 91.6317 106.048 87.9807 111.203C90.5838 109.486 92.989 107.486 95.1523 105.24C101.164 98.9639 105.111 90.9978 106.462 82.4123C107.372 86.659 107.641 91.0357 107.242 95.356C126.63 68.3117 108.85 40.2707 101.41 32.8867C101.384 32.8303 101.358 32.8043 101.358 32.7523C101.332 32.7783 101.332 32.7783 101.332 32.8043C101.332 32.7783 101.332 32.7783 101.301 32.7523C101.301 33.073 101.275 33.3937 101.249 33.7187C101.175 34.3203 101.085 34.9199 100.981 35.517C100.851 36.1063 100.686 36.7 100.526 37.2937C100.335 37.857 100.123 38.4463 99.8757 39.0097C99.6301 39.566 99.3627 40.1124 99.074 40.6477C98.4744 41.7005 97.7827 42.6982 97.007 43.629C96.604 44.11 96.175 44.539 95.7417 44.9723C95.4884 45.2039 95.2283 45.4279 94.9617 45.644L94.3463 46.1813C93.8669 46.5597 93.3647 46.9085 92.8427 47.2257C92.3293 47.5563 91.8 47.8614 91.2567 48.14C90.6933 48.4087 90.13 48.6513 89.5667 48.894C88.4193 49.3304 87.2321 49.654 86.022 49.8603C85.4023 49.9687 84.787 50.0207 84.1933 50.077C83.765 50.1073 83.3358 50.1246 82.9063 50.129C82.2955 50.1206 81.6853 50.0844 81.0777 50.0207C80.4642 49.9725 79.8547 49.8827 79.2533 49.752C78.6442 49.6415 78.0434 49.4894 77.455 49.297H77.4247C78.0183 49.2407 78.6077 49.1887 79.2013 49.0803C80.4107 48.8707 81.5975 48.5471 82.746 48.114C83.3353 47.8973 83.8987 47.6287 84.436 47.36C84.9993 47.0913 85.5107 46.7967 86.048 46.476C86.5593 46.1293 87.0663 45.7783 87.5517 45.4013C88.037 45.0243 88.492 44.6213 88.921 44.1923C89.376 43.7893 89.779 43.3343 90.182 42.875C90.585 42.394 90.962 41.9087 91.3087 41.4277C91.365 41.3453 91.4213 41.237 91.4733 41.159C91.742 40.7257 92.0107 40.2967 92.2533 39.8677C92.8454 38.7987 93.3302 37.6738 93.7007 36.5093C93.8913 35.946 94.0257 35.3567 94.16 34.763C94.2683 34.1477 94.3767 33.5583 94.4287 32.9647C94.4807 32.3493 94.537 31.7297 94.537 31.1403C94.537 30.707 94.5067 30.278 94.4807 29.849C94.4271 29.2474 94.3548 28.6477 94.264 28.0507C94.1596 27.4453 94.0265 26.8451 93.8653 26.2523C93.6747 25.689 93.4883 25.0953 93.2717 24.532C93.055 23.9687 92.7907 23.4053 92.522 22.868C92.223 22.3307 91.9283 21.7933 91.6077 21.282C91.2646 20.78 90.9062 20.2886 90.533 19.8087C90.13 19.3493 89.727 18.89 89.298 18.435C89.0719 18.2044 88.8393 17.9805 88.6003 17.7633C87.387 16.823 86.1303 15.939 84.865 15.133C84.6914 15.0327 84.512 14.943 84.3277 14.8643C83.531 14.3765 82.6726 13.9933 81.7753 13.7333Z" fill="white"/>
</g>
<defs>
<clipPath id="clip0_7_34">
<rect width="104" height="104" fill="white" transform="translate(12 12)"/>
</clipPath>
</defs>
</svg>
