<svg width="128" height="128" viewBox="0 0 128 128" fill="none" xmlns="http://www.w3.org/2000/svg">
<rect width="128" height="128" fill="#333333"/>
<path d="M64 16C51.2696 16 39.0606 21.0571 30.0589 30.0589C21.0571 39.0606 16 51.2696 16 64C16 76.7304 21.0571 88.9394 30.0589 97.9411C39.0606 106.943 51.2696 112 64 112C76.7304 112 88.9394 106.943 97.9411 97.9411C106.943 88.9394 112 76.7304 112 64C112 51.2696 106.943 39.0606 97.9411 30.0589C88.9394 21.0571 76.7304 16 64 16ZM89.068 27.136L68.12 38.16L100.32 37.444L68.12 50.776L59.504 61.528L79.532 97.68L73.388 91.26L79.968 105.084L60.22 82.976L35.148 57.856L27.08 64.44L29.88 50.672L45.952 49.628L49.244 33.388L89.068 27.136Z" fill="white"/>
</svg>
