<svg width="128" height="128" viewBox="0 0 128 128" fill="none" xmlns="http://www.w3.org/2000/svg">
<rect width="128" height="128" fill="#333333"/>
<path d="M87.3739 16C83.6057 16 79.9918 17.4936 77.3273 20.1523C74.6627 22.811 73.1658 26.417 73.1658 30.177C73.1658 33.9369 74.6627 37.5429 77.3273 40.2016C79.9918 42.8603 83.6057 44.3539 87.3739 44.3539C91.1422 44.3539 94.7561 42.8603 97.4206 40.2016C100.085 37.5429 101.582 33.9369 101.582 30.177C101.582 26.417 100.085 22.811 97.4206 20.1523C94.7561 17.4936 91.1422 16 87.3739 16ZM67.8325 17.4343C51.1786 17.3387 35.4039 26.3355 27.1165 40.9282C27.4772 40.908 27.8385 40.8983 28.1998 40.8991C32.0055 40.903 35.7349 41.964 38.9705 43.9631C42.1019 39.4502 46.2652 35.7461 51.116 33.1572C55.9668 30.5683 61.3656 29.1691 66.8659 29.0752C67.0956 24.8932 68.6002 20.8809 71.1783 17.5757C70.0652 17.4879 68.9492 17.4408 67.8325 17.4343ZM106.274 38.1967C104.632 42.0532 101.842 45.3129 98.2821 47.5344C101.124 52.888 102.514 58.89 102.315 64.945C102.115 71.0001 100.333 76.8979 97.1446 82.0538C100.471 84.77 102.851 88.4662 103.945 92.6137C110.035 84.9474 113.539 75.556 113.958 65.7823C114.376 56.0086 111.686 46.3532 106.274 38.1967ZM28.2081 47.0854C24.4399 47.0854 20.826 48.579 18.1615 51.2377C15.4969 53.8964 14 57.5023 14 61.2623C14.0011 65.0216 15.4985 68.6264 18.1629 71.2842C20.8274 73.942 24.4406 75.4351 28.2081 75.4351C31.9764 75.4351 35.5902 73.9415 38.2548 71.2828C40.9193 68.6241 42.4163 65.0181 42.4163 61.2582C42.4163 57.4982 40.9193 53.8922 38.2548 51.2335C35.5902 48.5748 31.9764 47.0854 28.2081 47.0854ZM36.6538 79.788C32.8524 81.5094 28.6141 82.0288 24.5082 81.2763C27.348 88.2838 31.8694 94.4879 37.675 99.3434C43.4806 104.199 50.3926 107.557 57.8035 109.123C61.1198 109.832 64.5036 110.179 67.895 110.158C65.2866 106.747 63.8293 102.599 63.7326 98.3095C62.5628 98.179 61.4003 97.9903 60.2493 97.7441C55.2274 96.6842 50.5048 94.5228 46.4237 91.4164C42.3426 88.31 39.0054 84.3364 36.6538 79.7838V79.788ZM84.174 83.6461C80.4057 83.6461 76.7919 85.1397 74.1273 87.7984C71.4628 90.4571 69.9659 94.0631 69.9659 97.823C69.9659 101.583 71.4628 105.189 74.1273 107.848C76.7919 110.506 80.4057 112 84.174 112C87.9422 112 91.5561 110.506 94.2206 107.848C96.8852 105.189 98.3821 101.583 98.3821 97.823C98.3821 94.0631 96.8852 90.4571 94.2206 87.7984C91.5561 85.1397 87.9422 83.6461 84.174 83.6461Z" fill="white"/>
</svg>
