<svg width="128" height="128" viewBox="0 0 128 128" fill="none" xmlns="http://www.w3.org/2000/svg">
<rect width="128" height="128" fill="#333333"/>
<path d="M95.805 37.3312C97.616 36.5568 98.9098 36.2988 100.203 36.5568C102.273 37.0732 103.308 38.622 104.084 39.396C104.86 40.9448 107.706 42.4936 109 42.7516C110.035 43.0096 111.846 40.1704 113.139 37.5892C114.433 35.266 115.209 32.1685 114.95 31.3941C114.692 30.6197 111.069 29.0709 110.293 29.0709C109.776 29.0709 108.741 29.5873 106.93 29.3289C105.119 29.0709 103.308 27.0057 102.273 25.4569C100.462 22.8757 97.8746 21.3269 95.546 20.0362C92.9589 18.7454 90.1127 17.971 87.267 17.455C83.1274 16.4226 78.9879 15.6482 74.8484 16.1642C72.5198 16.4222 69.674 16.6806 67.6041 17.455C67.3455 17.455 66.8279 18.2294 67.3455 18.2294C67.8631 18.2294 69.674 18.4874 69.674 18.4874C69.674 18.4874 67.3459 19.0042 67.3459 19.5206C67.3459 20.037 67.6045 20.037 67.8635 20.037C68.1221 20.037 73.814 19.779 76.1425 20.037C78.7297 20.5534 81.5758 21.8437 83.3868 24.9413C86.4916 30.6201 85.1978 36.0408 84.4216 37.8476C80.5407 46.3655 49.7529 98.7647 48.2006 102.378C46.6478 105.992 46.1306 108.315 50.5287 110.638C54.9269 112.961 57.2554 111.929 58.5492 110.38C60.1016 108.315 86.7498 41.7192 95.805 37.3312ZM81.3165 72.1777H87.526C91.6655 72.1777 92.4417 74.2429 92.4417 75.0169C92.7003 77.0821 91.6655 79.6633 87.526 79.6633H83.645L86.7498 84.8256C88.5607 87.9232 87.7846 89.472 86.7498 90.5044C85.1974 92.0532 81.834 92.0532 80.0231 88.6976L76.4011 82.5024C73.814 88.1812 71.2268 94.3759 68.1221 101.603H84.1626C91.9241 101.603 98.3922 95.1503 98.3922 87.4068V42.2356C98.1336 41.7192 97.616 41.9776 97.3574 42.2356C95.805 44.0424 91.4069 50.2371 81.3165 72.1777ZM41.9911 104.185H40.6973C31.3834 104.185 23.8805 96.6995 23.8805 87.4072V44.0424C23.8805 34.75 31.3834 27.2645 40.6973 27.2645H78.2121C77.4359 26.4901 74.3312 25.1993 71.2268 25.4577C69.933 25.4577 67.3459 25.9741 65.7935 24.9413C64.2411 23.6505 64.4997 22.8761 62.1715 22.8761H39.1453C28.5377 22.8761 20 31.3941 20 41.9772V88.9556C20 99.5387 28.5377 108.057 37.8519 107.799C40.4387 107.799 41.2149 105.734 41.9911 104.185ZM101.238 43.784V87.4068C101.238 96.6991 93.7355 104.185 84.4216 104.185H67.0869C67.0869 104.185 65.5345 108.315 70.4502 108.315H85.9736C96.5812 108.315 105.119 99.7967 105.119 89.2136V51.2695C105.378 47.6559 102.273 45.3327 101.238 43.784ZM26.7263 44.0424V87.4072C26.7263 95.1507 33.1944 101.604 40.9559 101.604H43.2844C43.2844 101.346 46.3892 95.9251 53.1159 84.5676C53.8921 83.0188 54.9269 81.47 55.9616 79.6633H37.0753C34.7468 79.6633 33.4534 78.1145 33.1944 76.8241C32.6768 74.7589 33.9706 72.1777 36.8163 72.1777H46.3892L58.5492 51.0115C58.5492 51.0115 55.7034 45.8491 54.9273 44.5584C53.8921 42.7516 54.4097 40.9448 55.4445 39.9124C56.9968 38.3636 59.584 37.5892 62.1711 41.7192L63.2059 43.268L64.2407 41.7192C66.5693 38.3636 68.1217 38.6216 69.415 38.88C71.485 39.3964 72.7784 41.7192 70.9674 45.3331L54.9269 72.1777H60.3602C62.1711 69.0801 63.9821 65.9826 65.7935 62.627C65.5349 61.3362 65.2759 59.7878 65.5349 58.497C65.7935 56.4319 66.8287 54.6251 68.1221 53.0763L69.6744 55.6575C74.5902 47.1395 78.2121 39.912 79.2473 37.0724C79.7649 35.5236 80.5411 32.4261 79.7649 29.8449H40.9563C32.9358 29.8453 26.7263 36.2984 26.7263 44.0424ZM37.8515 87.1488C37.8515 86.8908 40.9563 81.47 40.9563 81.47C45.872 80.1793 48.2006 83.2768 48.4592 83.5352C48.4592 83.5352 45.0958 89.472 44.061 90.5044C43.0262 91.5368 41.7325 91.7952 40.4391 91.5368C38.3687 91.0208 37.0753 88.9556 37.8515 87.1488Z" fill="white"/>
</svg>
